<svg width="214" height="190" viewBox="0 0 214 190" fill="none" xmlns="http://www.w3.org/2000/svg">
<path d="M39.16 152.52L31.6 139.24V145.36C31.6 147.013 31.6533 148.4 31.76 149.52C31.8667 150.64 32.04 151.613 32.28 152.44C32.52 153.267 32.8267 154 33.2 154.64C33.5733 155.253 34.0267 155.88 34.56 156.52C33.9733 156.36 33.4533 156.2 33 156.04C32.5733 155.88 32.1467 155.693 31.72 155.48C31.32 155.267 30.8933 155 30.44 154.68C30.0133 154.36 29.5067 153.96 28.92 153.48C28.5467 154.12 28.1333 154.707 27.68 155.24C27.2533 155.8 26.7333 156.32 26.12 156.8C25.5333 157.28 24.8533 157.72 24.08 158.12C23.3067 158.52 22.4 158.88 21.36 159.2C22.16 158.427 22.9067 157.547 23.6 156.56C24.2933 155.6 24.8933 154.573 25.4 153.48C25.9333 152.36 26.3467 151.213 26.64 150.04C26.96 148.867 27.12 147.68 27.12 146.48C27.12 145.36 26.9733 144.28 26.68 143.24C26.4133 142.2 25.96 141.2 25.32 140.24C26.6267 137.733 27.28 135.493 27.28 133.52C27.28 131.84 26.84 130.333 25.96 129C25.1067 127.64 23.88 126.387 22.28 125.24C22.5467 125.16 22.8533 125.12 23.2 125.12C23.7333 125.12 24.32 125.187 24.96 125.32C25.6267 125.427 26.3467 125.547 27.12 125.68C27.92 125.813 28.7867 125.947 29.72 126.08C30.6533 126.187 31.68 126.24 32.8 126.24C33.0667 126.24 33.32 126.24 33.56 126.24C33.8267 126.24 34.0933 126.227 34.36 126.2C34.12 126.387 33.8933 126.627 33.68 126.92C33.4933 127.213 33.32 127.533 33.16 127.88C33 128.227 32.8667 128.587 32.76 128.96C32.68 129.333 32.64 129.68 32.64 130L40.6 143.72L47.24 130.24C46.92 129.307 46.5467 128.52 46.12 127.88C45.72 127.24 45.1867 126.64 44.52 126.08C44.7067 126.133 44.88 126.16 45.04 126.16C45.2 126.16 45.3733 126.16 45.56 126.16C46.4667 126.16 47.4133 126.133 48.4 126.08C49.3867 126 50.3733 125.907 51.36 125.8C52.3467 125.667 53.3067 125.533 54.24 125.4C55.1733 125.24 56.0667 125.093 56.92 124.96C56.12 125.52 55.4667 126.133 54.96 126.8C54.48 127.44 54.1067 128.12 53.84 128.84C53.6 129.56 53.4267 130.32 53.32 131.12C53.24 131.893 53.2 132.693 53.2 133.52C53.2 134.533 53.3733 135.587 53.72 136.68C54.0667 137.773 54.5733 138.96 55.24 140.24C54.76 141.093 54.32 142.16 53.92 143.44C53.5467 144.72 53.36 146 53.36 147.28C53.36 148.667 53.6 149.96 54.08 151.16C54.5867 152.36 55.3067 153.253 56.24 153.84C55.68 154.133 55.12 154.48 54.56 154.88C54 155.253 53.48 155.653 53 156.08C52.52 156.533 52.0933 156.987 51.72 157.44C51.3467 157.893 51.0667 158.32 50.88 158.72C50.7467 158.32 50.5067 157.88 50.16 157.4C49.84 156.92 49.44 156.453 48.96 156C48.48 155.547 47.96 155.133 47.4 154.76C46.84 154.36 46.28 154.053 45.72 153.84C46.1467 153.467 46.48 152.973 46.72 152.36C46.9867 151.747 47.1733 151.067 47.28 150.32C47.4133 149.573 47.4933 148.773 47.52 147.92C47.5733 147.067 47.6 146.213 47.6 145.36V137.8L39.84 152.64L39.16 152.52ZM58.6994 137.28C59.2594 137.227 59.886 137.147 60.5794 137.04C61.2727 136.907 61.966 136.76 62.6594 136.6C63.3527 136.44 63.9927 136.28 64.5794 136.12C65.166 135.933 65.6327 135.76 65.9794 135.6C65.926 136.053 65.8727 136.467 65.8194 136.84C65.7927 137.213 65.766 137.613 65.7394 138.04C65.7394 138.467 65.726 138.933 65.6994 139.44C65.6994 139.947 65.6994 140.547 65.6994 141.24V148.52L67.3794 149.8L71.2194 148.12V142.68C71.2194 141.773 71.1927 141.027 71.1394 140.44C71.1127 139.853 71.0327 139.387 70.8994 139.04C70.766 138.693 70.5794 138.44 70.3394 138.28C70.126 138.093 69.8194 137.947 69.4194 137.84V137.32C70.6994 137.24 71.9527 137.053 73.1794 136.76C74.4327 136.467 75.5127 136.093 76.4194 135.64V154.04C76.4194 155.72 76.4327 157.12 76.4594 158.24C76.5127 159.387 76.606 160.24 76.7394 160.8C75.9927 160.8 75.1794 160.907 74.2994 161.12C73.4194 161.36 72.526 161.68 71.6194 162.08C70.7394 162.48 69.8727 162.947 69.0194 163.48C68.166 164.04 67.406 164.64 66.7394 165.28C65.2194 164.16 63.806 163.347 62.4994 162.84C61.1927 162.333 59.8194 162.08 58.3794 162.08C58.5927 160.96 58.926 159.933 59.3794 159C59.8594 158.093 60.406 157.347 61.0194 156.76C61.3127 156.787 61.766 156.92 62.3794 157.16C63.0194 157.427 63.7127 157.76 64.4594 158.16C65.206 158.56 65.9394 158.987 66.6594 159.44C67.406 159.893 68.046 160.333 68.5794 160.76L71.5794 159.8C71.526 159.453 71.4727 159.067 71.4194 158.64C71.3927 158.24 71.3527 157.707 71.2994 157.04C71.2727 156.4 71.246 155.6 71.2194 154.64C71.2194 153.653 71.2194 152.413 71.2194 150.92C70.446 151.32 69.766 151.693 69.1794 152.04C68.5927 152.387 68.0594 152.733 67.5794 153.08C67.0994 153.427 66.646 153.787 66.2194 154.16C65.8194 154.507 65.406 154.893 64.9794 155.32C64.446 154.84 63.966 154.44 63.5394 154.12C63.1394 153.773 62.7394 153.467 62.3394 153.2C61.966 152.933 61.5794 152.693 61.1794 152.48C60.806 152.24 60.3794 151.987 59.8994 151.72C60.006 151.587 60.0994 151.253 60.1794 150.72C60.286 150.16 60.3794 149.507 60.4594 148.76C60.5394 147.987 60.5927 147.16 60.6194 146.28C60.6727 145.4 60.6994 144.56 60.6994 143.76C60.6994 142.853 60.6594 142.067 60.5794 141.4C60.526 140.733 60.4194 140.173 60.2594 139.72C60.0994 139.24 59.886 138.853 59.6194 138.56C59.3794 138.24 59.0594 137.96 58.6594 137.72L58.6994 137.28ZM109.013 149.8C108.879 147.16 108.773 144.627 108.693 142.2C108.639 139.773 108.586 137.627 108.533 135.76C108.506 133.893 108.479 132.4 108.453 131.28C108.453 130.16 108.453 129.587 108.453 129.56C108.319 127.933 107.479 126.813 105.933 126.2C106.199 126.227 106.453 126.24 106.693 126.24C106.959 126.24 107.226 126.24 107.493 126.24C108.693 126.24 109.786 126.187 110.773 126.08C111.786 125.947 112.706 125.813 113.533 125.68C114.359 125.547 115.106 125.427 115.773 125.32C116.466 125.187 117.106 125.12 117.693 125.12C118.013 125.12 118.319 125.16 118.613 125.24C117.013 126.387 115.773 127.64 114.893 129C114.039 130.333 113.613 131.84 113.613 133.52C113.613 135.493 114.266 137.733 115.573 140.24C114.959 141.787 114.453 143.453 114.053 145.24C113.679 147.027 113.493 148.813 113.493 150.6C113.493 151.373 113.519 152.267 113.573 153.28C113.653 154.267 113.786 155.24 113.973 156.2C114.773 157.053 115.479 157.72 116.093 158.2C116.733 158.68 117.306 159.04 117.813 159.28C118.319 159.52 118.786 159.68 119.213 159.76C119.666 159.84 120.106 159.907 120.533 159.96L119.493 157.32C120.399 157.827 121.306 158.307 122.213 158.76C123.119 159.213 124.053 159.613 125.013 159.96C125.973 160.307 126.973 160.573 128.013 160.76C129.079 160.973 130.213 161.08 131.413 161.08C132.213 161.08 133.039 161.053 133.893 161C134.773 160.947 135.693 160.853 136.653 160.72C134.306 161.653 132.093 162.32 130.013 162.72C127.959 163.147 126.013 163.36 124.173 163.36C121.826 163.36 119.653 163.027 117.653 162.36C115.679 161.693 113.839 160.787 112.133 159.64C110.453 158.52 108.906 157.213 107.493 155.72C106.106 154.253 104.826 152.707 103.653 151.08C102.506 149.427 101.466 147.76 100.533 146.08C99.6261 144.4 98.8128 142.8 98.0928 141.28V145.36C98.0928 147.013 98.1461 148.4 98.2528 149.52C98.3595 150.64 98.5328 151.613 98.7728 152.44C99.0128 153.267 99.3195 154 99.6928 154.64C100.066 155.253 100.519 155.88 101.053 156.52C100.466 156.36 99.9461 156.2 99.4928 156.04C99.0661 155.88 98.6395 155.693 98.2128 155.48C97.8128 155.267 97.3861 155 96.9328 154.68C96.5061 154.36 95.9995 153.96 95.4128 153.48C94.6928 154.76 93.7328 155.867 92.5328 156.8C91.3328 157.733 89.7195 158.533 87.6928 159.2C88.4928 158.427 89.2395 157.547 89.9328 156.56C90.6261 155.6 91.2261 154.573 91.7328 153.48C92.2661 152.36 92.6795 151.213 92.9728 150.04C93.2928 148.867 93.4528 147.68 93.4528 146.48C93.4528 145.36 93.3061 144.28 93.0128 143.24C92.7461 142.2 92.2928 141.2 91.6528 140.24C92.9595 137.733 93.6128 135.493 93.6128 133.52C93.6128 131.84 93.1728 130.333 92.2928 129C91.4395 127.64 90.2128 126.387 88.6128 125.24C88.8795 125.16 89.1861 125.12 89.5328 125.12C90.0661 125.12 90.6661 125.187 91.3328 125.32C92.0261 125.427 92.7728 125.547 93.5728 125.68C94.3995 125.813 95.2795 125.947 96.2128 126.08C97.1728 126.187 98.1995 126.24 99.2928 126.24C99.5595 126.24 99.8128 126.24 100.053 126.24C100.319 126.24 100.586 126.227 100.853 126.2C99.4128 126.76 98.5861 127.747 98.3728 129.16C98.8528 130.36 99.4261 131.747 100.093 133.32C100.786 134.893 101.546 136.547 102.373 138.28C103.226 140.013 104.146 141.773 105.133 143.56C106.119 145.32 107.146 147 108.213 148.6L109.013 149.8ZM127.26 156.28C126.754 155.907 126.127 155.56 125.38 155.24C124.634 154.92 123.86 154.653 123.06 154.44C122.287 154.2 121.527 154.013 120.78 153.88C120.06 153.747 119.46 153.68 118.98 153.68C119.194 153.333 119.38 152.853 119.54 152.24C119.7 151.6 119.82 150.92 119.9 150.2C120.007 149.453 120.074 148.693 120.1 147.92C120.154 147.147 120.18 146.44 120.18 145.8C120.18 144.173 120.074 142.827 119.86 141.76C119.674 140.667 119.487 139.813 119.3 139.2C120.447 138.987 121.487 138.573 122.42 137.96C123.38 137.347 124.327 136.573 125.26 135.64C126.354 135.853 127.7 136.04 129.3 136.2C130.9 136.333 132.487 136.427 134.06 136.48C133.98 136.96 133.94 137.56 133.94 138.28C133.94 138.84 133.967 139.453 134.02 140.12C134.074 140.76 134.14 141.4 134.22 142.04C134.3 142.68 134.407 143.293 134.54 143.88C134.674 144.467 134.82 144.973 134.98 145.4C133.354 145.533 131.7 145.72 130.02 145.96C128.34 146.173 126.7 146.413 125.1 146.68C125.074 147.453 125.02 148.213 124.94 148.96C124.86 149.707 124.794 150.36 124.74 150.92C125.06 151.053 125.46 151.173 125.94 151.28C126.447 151.387 126.98 151.493 127.54 151.6C128.1 151.68 128.647 151.76 129.18 151.84C129.714 151.893 130.167 151.933 130.54 151.96C130.674 151.133 130.994 150.427 131.5 149.84C132.034 149.253 132.927 148.773 134.18 148.4C134.154 148.72 134.14 149.04 134.14 149.36C134.14 149.653 134.14 149.947 134.14 150.24C134.14 151.147 134.167 151.867 134.22 152.4C134.3 152.907 134.434 153.413 134.62 153.92C134.114 153.973 133.514 154.08 132.82 154.24C132.127 154.373 131.434 154.56 130.74 154.8C130.047 155.013 129.38 155.24 128.74 155.48C128.127 155.747 127.634 156.013 127.26 156.28ZM124.7 139.24C124.834 140.36 124.927 141.347 124.98 142.2C125.06 143.053 125.114 143.84 125.14 144.56L129.82 143.4C129.687 142.867 129.567 142.307 129.46 141.72C129.38 141.133 129.34 140.533 129.34 139.92C128.727 139.92 127.98 139.867 127.1 139.76C126.247 139.627 125.447 139.453 124.7 139.24ZM155.858 156.12C155.351 155.8 154.871 155.493 154.418 155.2C153.964 154.933 153.511 154.68 153.058 154.44C152.604 154.173 152.124 153.907 151.618 153.64C151.138 153.347 150.618 153.04 150.058 152.72H149.778L146.378 156.12H145.978C145.204 155.587 144.204 155.067 142.978 154.56C141.751 154.053 140.538 153.64 139.338 153.32C139.391 153.053 139.444 152.627 139.498 152.04C139.551 151.427 139.578 150.52 139.578 149.32C139.578 146.813 139.431 144.693 139.138 142.96C138.844 141.227 138.378 139.8 137.738 138.68L136.578 138.44V137.76C137.138 137.68 137.751 137.56 138.418 137.4C139.084 137.24 139.711 137.067 140.298 136.88C140.911 136.693 141.458 136.493 141.938 136.28C142.418 136.067 142.778 135.853 143.018 135.64C143.418 136.2 143.764 137.507 144.058 139.56C144.351 141.587 144.564 144.32 144.698 147.76L144.818 151.24L146.858 152.32H147.098L148.778 150.6C148.858 150.173 148.911 149.747 148.938 149.32C148.964 148.867 148.978 148.173 148.978 147.24C148.978 145 148.911 143.213 148.778 141.88C148.671 140.547 148.484 139.48 148.218 138.68L147.058 138.44V137.76C147.618 137.68 148.231 137.56 148.898 137.4C149.564 137.24 150.191 137.067 150.778 136.88C151.391 136.693 151.938 136.493 152.418 136.28C152.898 136.067 153.258 135.853 153.498 135.64C153.711 136.467 153.858 137.48 153.938 138.68C154.018 139.853 154.058 141.32 154.058 143.08C154.058 143.827 154.044 144.613 154.018 145.44C154.018 146.24 154.004 147 153.978 147.72C153.951 148.44 153.924 149.08 153.898 149.64C153.871 150.2 153.844 150.6 153.818 150.84L156.138 152.64H156.378C156.644 152.133 156.911 151.44 157.178 150.56C157.444 149.68 157.671 148.72 157.858 147.68C158.071 146.613 158.244 145.52 158.378 144.4C158.511 143.28 158.578 142.227 158.578 141.24C158.578 140.12 158.471 139.28 158.258 138.72C158.071 138.16 157.724 137.747 157.218 137.48L157.258 136.84C159.498 136.68 161.604 136.28 163.578 135.64C163.524 135.72 163.498 135.867 163.498 136.08C163.498 137.147 163.551 138.053 163.658 138.8C163.764 139.52 164.004 140.067 164.378 140.44L160.858 152.32L156.258 156.12H155.858ZM172.803 138.88C172.75 139.307 172.71 139.72 172.683 140.12C172.683 140.52 172.683 140.987 172.683 141.52C172.683 142.053 172.696 142.587 172.723 143.12C172.75 143.653 172.79 144.133 172.843 144.56C173.35 144.373 173.87 144.213 174.403 144.08C174.963 143.947 175.576 143.827 176.243 143.72C176.936 143.613 177.71 143.52 178.563 143.44C179.416 143.36 180.416 143.28 181.563 143.2C181.483 144.133 181.443 145.493 181.443 147.28C181.443 148.8 181.47 150.16 181.523 151.36C181.576 152.533 181.67 153.427 181.803 154.04C180.976 154.04 180.136 154.093 179.283 154.2C178.43 154.307 177.616 154.453 176.843 154.64C176.07 154.827 175.35 155.053 174.683 155.32C174.016 155.587 173.456 155.88 173.003 156.2C172.683 155.907 172.323 155.653 171.923 155.44C171.55 155.227 171.096 155.053 170.563 154.92C170.03 154.76 169.403 154.64 168.683 154.56C167.963 154.453 167.11 154.373 166.123 154.32C166.176 153.493 166.336 152.653 166.603 151.8C166.896 150.92 167.256 150.213 167.683 149.68C168.296 149.68 169.256 149.907 170.563 150.36C171.87 150.813 173.603 151.52 175.763 152.48C175.923 151.627 176.043 150.853 176.123 150.16C176.203 149.44 176.243 148.693 176.243 147.92C176.243 147.44 176.243 147.093 176.243 146.88C176.243 146.667 176.23 146.467 176.203 146.28C175.03 146.387 173.67 146.587 172.123 146.88C170.576 147.147 169.123 147.467 167.763 147.84C167.87 146.693 167.936 145.813 167.963 145.2C167.99 144.56 168.003 143.987 168.003 143.48C168.003 142.28 167.936 141.227 167.803 140.32C167.696 139.413 167.51 138.573 167.243 137.8C168.256 137.8 169.35 137.627 170.523 137.28C171.696 136.933 173.163 136.387 174.923 135.64C176.603 136.493 179.11 137.04 182.443 137.28C181.963 138.427 181.416 139.267 180.803 139.8C180.19 140.307 179.43 140.56 178.523 140.56C178.123 140.56 177.67 140.52 177.163 140.44C176.656 140.36 176.136 140.24 175.603 140.08C175.096 139.92 174.59 139.747 174.083 139.56C173.603 139.347 173.176 139.12 172.803 138.88Z" fill="#E74833"/>
<path d="M94.9145 28.4251L134.584 81.7192L137.417 45.0645" stroke="#C44534" stroke-width="10" stroke-linecap="round" stroke-linejoin="round"/>
<path d="M120.049 92.538L80.3799 39.2438L77.5466 75.8986" stroke="#C44534" stroke-width="10" stroke-linecap="round" stroke-linejoin="round"/>
</svg>
